<svg xmlns="http://www.w3.org/2000/svg" xmlns:xlink="http://www.w3.org/1999/xlink" width="500" zoomAndPan="magnify" viewBox="0 0 375 374.999991" height="500" preserveAspectRatio="xMidYMid meet" version="1.0"><defs><clipPath id="3c44e9d015"><path d="M 48.28125 261 L 326.53125 261 L 326.53125 337.316406 L 48.28125 337.316406 Z M 48.28125 261 " clip-rule="nonzero"/></clipPath><clipPath id="5f616f5714"><path d="M 72 59.066406 L 304 59.066406 L 304 271 L 72 271 Z M 72 59.066406 " clip-rule="nonzero"/></clipPath></defs><rect x="-37.5" width="450" fill="#ffffff" y="-37.499999" height="449.999989" fill-opacity="1"/><rect x="-37.5" width="450" fill="#ffffff" y="-37.499999" height="449.999989" fill-opacity="1"/><g clip-path="url(#3c44e9d015)"><path fill="#469aa4" d="M 319.628906 261.984375 C 315.855469 261.984375 312.550781 265.289062 312.550781 269.0625 L 312.550781 310.121094 C 312.550781 317.199219 306.886719 323.332031 299.335938 323.332031 L 75.652344 323.332031 C 68.574219 323.332031 62.441406 317.671875 62.441406 310.121094 L 62.441406 269.0625 C 62.441406 265.289062 59.136719 261.984375 55.359375 261.984375 C 51.585938 261.984375 48.28125 265.289062 48.28125 269.0625 L 48.28125 310.121094 C 48.28125 325.222656 60.550781 337.492188 75.652344 337.492188 L 299.335938 337.492188 C 314.4375 337.492188 326.707031 325.222656 326.707031 310.121094 L 326.707031 269.0625 C 326.707031 265.289062 323.40625 261.984375 319.628906 261.984375 Z M 319.628906 261.984375 " fill-opacity="1" fill-rule="nonzero"/></g><g clip-path="url(#5f616f5714)"><path fill="#469aa4" d="M 170.035156 263.871094 C 174.753906 268.121094 181.359375 270.007812 187.496094 270.007812 C 193.628906 270.007812 200.238281 267.648438 204.957031 263.871094 L 300.753906 185.0625 C 302.167969 183.648438 303.113281 182.234375 303.113281 180.34375 C 303.113281 178.457031 302.640625 176.570312 301.695312 175.152344 C 300.28125 173.738281 298.867188 172.792969 296.976562 172.792969 C 295.089844 172.792969 293.203125 173.265625 291.785156 174.210938 L 195.988281 253.019531 C 195.519531 253.492188 195.046875 253.960938 194.574219 253.960938 L 194.574219 66.144531 C 194.574219 62.367188 191.269531 59.066406 187.496094 59.066406 C 183.71875 59.066406 180.417969 62.367188 180.417969 66.144531 L 180.417969 253.960938 C 179.945312 253.492188 179.472656 253.492188 179 253.019531 L 83.675781 173.738281 C 82.257812 172.324219 80.371094 171.851562 78.484375 172.324219 C 76.597656 172.324219 74.710938 173.265625 73.765625 174.683594 C 72.347656 176.097656 71.878906 177.984375 72.347656 179.875 C 72.820312 181.761719 73.292969 183.648438 74.710938 184.59375 Z M 170.035156 263.871094 " fill-opacity="1" fill-rule="nonzero"/></g></svg>