<svg xmlns="http://www.w3.org/2000/svg" xmlns:xlink="http://www.w3.org/1999/xlink" width="500" zoomAndPan="magnify" viewBox="0 0 375 374.999991" height="500" preserveAspectRatio="xMidYMid meet" version="1.0"><defs><clipPath id="9c60881959"><path d="M 63.015625 84 L 80 84 L 80 93 L 63.015625 93 Z M 63.015625 84 " clip-rule="nonzero"/></clipPath><clipPath id="db8671e0b9"><path d="M 63.015625 40 L 312 40 L 312 290 L 63.015625 290 Z M 63.015625 40 " clip-rule="nonzero"/></clipPath></defs><rect x="-37.5" width="450" fill="#ffffff" y="-37.499999" height="449.999989" fill-opacity="1"/><rect x="-37.5" width="450" fill="#ffffff" y="-37.499999" height="449.999989" fill-opacity="1"/><path fill="#469aa4" d="M 111.203125 72.722656 C 120.066406 72.722656 127.265625 79.921875 127.265625 88.785156 C 127.265625 97.644531 120.066406 104.847656 111.203125 104.847656 C 102.339844 104.847656 95.140625 97.644531 95.140625 88.785156 C 95.140625 79.921875 102.339844 72.722656 111.203125 72.722656 Z M 111.203125 112.878906 C 124.488281 112.878906 135.296875 102.070312 135.296875 88.785156 C 135.296875 75.5 124.488281 64.691406 111.203125 64.691406 C 97.917969 64.691406 87.109375 75.5 87.109375 88.785156 C 87.109375 102.070312 97.917969 112.878906 111.203125 112.878906 " fill-opacity="1" fill-rule="nonzero"/><path fill="#469aa4" d="M 115.21875 40.597656 L 107.1875 40.597656 L 107.1875 56.660156 L 115.21875 56.660156 L 115.21875 40.597656 " fill-opacity="1" fill-rule="nonzero"/><path fill="#469aa4" d="M 91.328125 63.230469 L 79.972656 51.875 L 74.292969 57.554688 L 85.648438 68.910156 L 91.328125 63.230469 " fill-opacity="1" fill-rule="nonzero"/><g clip-path="url(#9c60881959)"><path fill="#469aa4" d="M 79.078125 84.769531 L 63.015625 84.769531 L 63.015625 92.800781 L 79.078125 92.800781 L 79.078125 84.769531 " fill-opacity="1" fill-rule="nonzero"/></g><path fill="#469aa4" d="M 74.292969 120.015625 L 79.972656 125.691406 L 91.328125 114.335938 L 85.648438 108.65625 L 74.292969 120.015625 " fill-opacity="1" fill-rule="nonzero"/><path fill="#469aa4" d="M 107.1875 136.972656 L 115.21875 136.972656 L 115.21875 120.910156 L 107.1875 120.910156 L 107.1875 136.972656 " fill-opacity="1" fill-rule="nonzero"/><path fill="#469aa4" d="M 131.074219 114.335938 L 142.433594 125.691406 L 148.109375 120.015625 L 136.753906 108.65625 L 131.074219 114.335938 " fill-opacity="1" fill-rule="nonzero"/><path fill="#469aa4" d="M 159.390625 84.769531 L 143.328125 84.769531 L 143.328125 92.800781 L 159.390625 92.800781 L 159.390625 84.769531 " fill-opacity="1" fill-rule="nonzero"/><path fill="#469aa4" d="M 148.109375 57.554688 L 142.433594 51.875 L 131.074219 63.230469 L 136.753906 68.910156 L 148.109375 57.554688 " fill-opacity="1" fill-rule="nonzero"/><path fill="#469aa4" d="M 243.933594 64.722656 C 243.964844 64.722656 243.980469 64.722656 244.011719 64.738281 L 247.839844 65.066406 L 248.859375 62.132812 C 251.667969 54.054688 259.277344 48.628906 267.808594 48.628906 C 276.34375 48.628906 283.949219 54.054688 286.757812 62.132812 L 287.777344 65.066406 L 291.902344 64.691406 C 298.554688 64.691406 303.949219 70.085938 303.949219 76.738281 C 303.949219 83.386719 298.554688 88.785156 291.902344 88.785156 L 243.714844 88.785156 C 237.066406 88.785156 231.667969 83.386719 231.667969 76.738281 C 231.667969 70.117188 237.035156 64.722656 243.933594 64.722656 Z M 243.714844 96.816406 L 291.902344 96.816406 C 302.976562 96.816406 311.980469 87.8125 311.980469 76.738281 C 311.980469 66.101562 303.667969 57.382812 293.203125 56.707031 C 288.59375 46.964844 278.742188 40.597656 267.808594 40.597656 C 256.875 40.597656 247.023438 46.964844 242.414062 56.707031 C 231.953125 57.382812 223.636719 66.101562 223.636719 76.738281 C 223.636719 87.8125 232.640625 96.816406 243.714844 96.816406 " fill-opacity="1" fill-rule="nonzero"/><path fill="#469aa4" d="M 231.902344 143.433594 L 239.777344 145 L 241.347656 137.128906 L 233.472656 135.558594 L 231.902344 143.433594 " fill-opacity="1" fill-rule="nonzero"/><path fill="#469aa4" d="M 244.5 121.378906 L 236.625 119.808594 L 235.058594 127.683594 L 242.929688 129.253906 L 244.5 121.378906 " fill-opacity="1" fill-rule="nonzero"/><path fill="#469aa4" d="M 247.652344 105.628906 L 239.777344 104.0625 L 238.210938 111.9375 L 246.085938 113.503906 L 247.652344 105.628906 " fill-opacity="1" fill-rule="nonzero"/><path fill="#469aa4" d="M 247.964844 143.433594 L 255.839844 145 L 257.410156 137.128906 L 249.535156 135.558594 L 247.964844 143.433594 " fill-opacity="1" fill-rule="nonzero"/><path fill="#469aa4" d="M 260.5625 121.378906 L 252.6875 119.808594 L 251.121094 127.683594 L 258.992188 129.253906 L 260.5625 121.378906 " fill-opacity="1" fill-rule="nonzero"/><path fill="#469aa4" d="M 263.714844 105.628906 L 255.839844 104.0625 L 254.273438 111.9375 L 262.144531 113.503906 L 263.714844 105.628906 " fill-opacity="1" fill-rule="nonzero"/><path fill="#469aa4" d="M 264.027344 143.433594 L 271.902344 145 L 273.472656 137.128906 L 265.597656 135.558594 L 264.027344 143.433594 " fill-opacity="1" fill-rule="nonzero"/><path fill="#469aa4" d="M 276.625 121.378906 L 268.75 119.808594 L 267.179688 127.683594 L 275.054688 129.253906 L 276.625 121.378906 " fill-opacity="1" fill-rule="nonzero"/><path fill="#469aa4" d="M 279.777344 105.628906 L 271.902344 104.0625 L 270.335938 111.9375 L 278.207031 113.503906 L 279.777344 105.628906 " fill-opacity="1" fill-rule="nonzero"/><path fill="#469aa4" d="M 280.089844 143.433594 L 287.964844 145 L 289.535156 137.128906 L 281.660156 135.558594 L 280.089844 143.433594 " fill-opacity="1" fill-rule="nonzero"/><path fill="#469aa4" d="M 292.6875 121.378906 L 284.8125 119.808594 L 283.242188 127.683594 L 291.117188 129.253906 L 292.6875 121.378906 " fill-opacity="1" fill-rule="nonzero"/><path fill="#469aa4" d="M 295.839844 105.628906 L 287.964844 104.0625 L 286.398438 111.9375 L 294.269531 113.503906 L 295.839844 105.628906 " fill-opacity="1" fill-rule="nonzero"/><path fill="#469aa4" d="M 287.886719 260.886719 L 287.886719 226.976562 L 294.742188 220.121094 L 289.0625 214.441406 L 279.855469 223.652344 L 279.855469 260.808594 C 273.472656 258.945312 268.042969 252.792969 265.441406 244.183594 C 269.425781 237.957031 271.824219 229.972656 271.824219 221.296875 C 271.824219 218.113281 271.464844 215.023438 270.867188 212.074219 C 274.523438 207.667969 279.085938 205.234375 283.871094 205.234375 C 294.945312 205.234375 303.949219 217.847656 303.949219 233.34375 C 303.949219 246.914062 297.046875 258.269531 287.886719 260.886719 Z M 247.730469 248.839844 L 247.730469 211.605469 L 238.523438 202.394531 L 232.84375 208.074219 L 239.699219 214.929688 L 239.699219 248.839844 C 230.539062 246.222656 223.636719 234.867188 223.636719 221.296875 C 223.636719 205.800781 232.640625 193.1875 243.714844 193.1875 C 254.789062 193.1875 263.792969 205.800781 263.792969 221.296875 C 263.792969 234.867188 256.890625 246.222656 247.730469 248.839844 Z M 283.871094 197.203125 C 278.128906 197.203125 272.703125 199.382812 268.105469 203.414062 C 263.261719 192.53125 254.148438 185.15625 243.714844 185.15625 C 228.21875 185.15625 215.605469 201.375 215.605469 221.296875 C 215.605469 239.460938 226.101562 254.503906 239.699219 257.03125 L 239.699219 289.5625 L 247.730469 289.5625 L 247.730469 257.03125 C 252.027344 256.230469 256.011719 254.222656 259.449219 251.226562 C 263.714844 260.886719 271.210938 267.523438 279.855469 269.109375 L 279.855469 289.5625 L 287.886719 289.5625 L 287.886719 269.078125 C 301.484375 266.550781 311.980469 251.507812 311.980469 233.34375 C 311.980469 213.421875 299.367188 197.203125 283.871094 197.203125 " fill-opacity="1" fill-rule="nonzero"/><g clip-path="url(#db8671e0b9)"><path fill="#469aa4" d="M 137.773438 161.0625 L 152.140625 132.34375 C 153.191406 130.242188 155.292969 128.941406 157.648438 128.941406 C 159.796875 128.941406 161.820312 130.085938 162.933594 131.9375 L 180.40625 161.0625 Z M 128.800781 161.0625 L 109.664062 161.0625 L 116 148.40625 C 117.054688 146.304688 119.15625 145 121.820312 145 C 123.875 145 125.804688 146.019531 126.933594 147.746094 L 131.8125 155.039062 Z M 298.617188 130.148438 C 301.753906 140.140625 303.429688 150.523438 303.792969 161.0625 L 191.511719 161.0625 L 191.511719 48.738281 C 203.371094 49.144531 215.167969 51.3125 226.320312 55.246094 L 228.988281 47.6875 C 205.269531 39.296875 178.886719 38.371094 154.636719 44.988281 L 156.753906 52.738281 C 165.445312 50.355469 174.445312 49.035156 183.480469 48.738281 L 183.480469 150.585938 L 169.804688 127.792969 C 167.261719 123.542969 162.605469 120.910156 157.648438 120.910156 C 152.234375 120.910156 147.375 123.921875 144.957031 128.75 L 135.9375 146.773438 L 133.632812 143.292969 C 130.980469 139.339844 126.574219 136.972656 121.507812 136.972656 C 116.097656 136.972656 111.234375 139.980469 108.816406 144.8125 L 100.691406 161.0625 L 71.171875 161.0625 C 71.484375 151.949219 72.789062 142.914062 75.1875 134.179688 L 67.4375 132.046875 C 64.503906 142.773438 63.015625 153.878906 63.015625 165.078125 C 63.015625 179.242188 65.382812 193.125 70.027344 206.363281 L 77.601562 203.699219 C 73.699219 192.578125 71.609375 180.953125 71.21875 169.09375 L 183.480469 169.09375 L 183.480469 281.359375 C 171.609375 280.964844 159.953125 278.863281 148.800781 274.941406 L 146.132812 282.519531 C 159.40625 287.195312 173.316406 289.5625 187.496094 289.5625 C 203.324219 289.5625 218.742188 286.628906 233.332031 280.855469 L 230.382812 273.375 C 217.976562 278.300781 204.925781 280.980469 191.511719 281.4375 L 191.511719 169.09375 L 303.839844 169.09375 C 303.621094 175.652344 302.882812 182.175781 301.582031 188.546875 L 309.453125 190.160156 C 311.132812 181.957031 311.980469 173.519531 311.980469 165.078125 C 311.980469 152.34375 310.066406 139.777344 306.285156 127.730469 L 298.617188 130.148438 " fill-opacity="1" fill-rule="nonzero"/></g><path fill="#469aa4" d="M 111.203125 242.613281 C 111.203125 245.0625 111.609375 247.445312 112.410156 249.703125 C 113.304688 252.167969 114.683594 255.632812 116.582031 259.257812 C 108.269531 252.808594 103.171875 242.851562 103.171875 232.011719 C 103.171875 223.886719 109.773438 217.28125 117.898438 217.28125 C 121.835938 217.28125 125.554688 218.960938 128.300781 221.722656 C 118.558594 223.683594 111.203125 232.308594 111.203125 242.613281 Z M 111.203125 185.15625 C 93.492188 185.15625 79.078125 199.574219 79.078125 217.28125 L 79.078125 251.523438 C 79.078125 261.078125 73.777344 269.65625 65.226562 273.921875 L 68.835938 281.109375 C 80.113281 275.460938 87.109375 264.136719 87.109375 251.523438 L 87.109375 217.28125 C 87.109375 203.996094 97.917969 193.1875 111.203125 193.1875 C 124.488281 193.1875 135.296875 203.996094 135.296875 217.28125 L 135.296875 217.34375 C 130.996094 212.246094 124.582031 209.25 117.898438 209.25 C 105.351562 209.25 95.140625 219.460938 95.140625 232.011719 C 95.140625 249.0625 105.273438 264.433594 120.941406 271.148438 L 125.835938 273.234375 L 129.789062 274.753906 C 132.628906 276.449219 135.78125 277.515625 139.3125 277.515625 L 139.3125 269.484375 C 128.832031 269.484375 121.867188 252.277344 119.96875 246.992188 C 119.484375 245.609375 119.234375 244.152344 119.234375 242.613281 C 119.234375 235.289062 125.195312 229.328125 132.519531 229.328125 L 134.292969 229.328125 L 136.09375 231.746094 C 137.144531 233.125 138.933594 233.6875 140.582031 233.140625 C 142.210938 232.589844 143.328125 231.054688 143.328125 229.328125 L 143.328125 217.28125 C 143.328125 199.574219 128.910156 185.15625 111.203125 185.15625 " fill-opacity="1" fill-rule="nonzero"/></svg>