<svg xmlns="http://www.w3.org/2000/svg" xmlns:xlink="http://www.w3.org/1999/xlink" width="500" zoomAndPan="magnify" viewBox="0 0 375 374.999991" height="500" preserveAspectRatio="xMidYMid meet" version="1.0"><defs><clipPath id="05c723c4b5"><path d="M 67 55.460938 L 313.519531 55.460938 L 313.519531 302 L 67 302 Z M 67 55.460938 " clip-rule="nonzero"/></clipPath><clipPath id="5568a68932"><path d="M 307 276 L 313.519531 276 L 313.519531 319.460938 L 307 319.460938 Z M 307 276 " clip-rule="nonzero"/></clipPath><clipPath id="12554f60ff"><path d="M 49.519531 55.460938 L 93 55.460938 L 93 62 L 49.519531 62 Z M 49.519531 55.460938 " clip-rule="nonzero"/></clipPath></defs><rect x="-37.5" width="450" fill="#ffffff" y="-37.499999" height="449.999989" fill-opacity="1"/><rect x="-37.5" width="450" fill="#ffffff" y="-37.499999" height="449.999989" fill-opacity="1"/><g clip-path="url(#05c723c4b5)"><path fill="#469aa4" d="M 310.496094 301.121094 L 70.867188 301.121094 C 69.164062 301.121094 67.773438 299.726562 67.773438 298.027344 L 67.773438 58.554688 C 67.773438 56.851562 69.164062 55.460938 70.867188 55.460938 C 72.570312 55.460938 73.960938 56.851562 73.960938 58.554688 L 73.960938 294.933594 L 310.496094 294.933594 C 312.195312 294.933594 313.589844 296.324219 313.589844 298.027344 C 313.589844 299.726562 312.195312 301.121094 310.496094 301.121094 Z M 310.496094 301.121094 " fill-opacity="1" fill-rule="evenodd"/></g><path fill="#469aa4" d="M 80.769531 89.648438 L 61.121094 89.648438 C 59.417969 89.648438 58.027344 88.253906 58.027344 86.554688 C 58.027344 84.851562 59.417969 83.460938 61.121094 83.460938 L 80.769531 83.460938 C 82.46875 83.460938 83.863281 84.851562 83.863281 86.554688 C 83.863281 88.253906 82.46875 89.648438 80.769531 89.648438 Z M 80.769531 89.648438 " fill-opacity="1" fill-rule="evenodd"/><path fill="#469aa4" d="M 80.769531 135.4375 L 61.121094 135.4375 C 59.417969 135.4375 58.027344 134.046875 58.027344 132.34375 C 58.027344 130.644531 59.417969 129.25 61.121094 129.25 L 80.769531 129.25 C 82.46875 129.25 83.863281 130.644531 83.863281 132.34375 C 83.863281 134.046875 82.46875 135.4375 80.769531 135.4375 Z M 80.769531 135.4375 " fill-opacity="1" fill-rule="evenodd"/><path fill="#469aa4" d="M 80.769531 181.382812 L 61.121094 181.382812 C 59.417969 181.382812 58.027344 179.992188 58.027344 178.289062 C 58.027344 176.589844 59.417969 175.195312 61.121094 175.195312 L 80.769531 175.195312 C 82.46875 175.195312 83.863281 176.589844 83.863281 178.289062 C 83.863281 179.992188 82.46875 181.382812 80.769531 181.382812 Z M 80.769531 181.382812 " fill-opacity="1" fill-rule="evenodd"/><path fill="#469aa4" d="M 80.769531 227.328125 L 61.121094 227.328125 C 59.417969 227.328125 58.027344 225.9375 58.027344 224.234375 C 58.027344 222.535156 59.417969 221.140625 61.121094 221.140625 L 80.769531 221.140625 C 82.46875 221.140625 83.863281 222.535156 83.863281 224.234375 C 83.863281 225.9375 82.46875 227.328125 80.769531 227.328125 Z M 80.769531 227.328125 " fill-opacity="1" fill-rule="evenodd"/><path fill="#469aa4" d="M 80.769531 273.273438 L 61.121094 273.273438 C 59.417969 273.273438 58.027344 271.882812 58.027344 270.179688 C 58.027344 268.324219 59.417969 267.085938 61.121094 267.085938 L 80.769531 267.085938 C 82.46875 267.085938 83.863281 268.324219 83.863281 270.179688 C 83.863281 271.882812 82.46875 273.273438 80.769531 273.273438 Z M 80.769531 273.273438 " fill-opacity="1" fill-rule="evenodd"/><path fill="#469aa4" d="M 282.496094 311.019531 C 280.792969 311.019531 279.402344 309.628906 279.402344 307.925781 L 279.402344 288.28125 C 279.402344 286.578125 280.792969 285.1875 282.496094 285.1875 C 284.195312 285.1875 285.589844 286.578125 285.589844 288.28125 L 285.589844 307.925781 C 285.589844 309.628906 284.195312 311.019531 282.496094 311.019531 Z M 282.496094 311.019531 " fill-opacity="1" fill-rule="evenodd"/><path fill="#469aa4" d="M 236.550781 311.019531 C 234.847656 311.019531 233.457031 309.628906 233.457031 307.925781 L 233.457031 288.28125 C 233.457031 286.578125 234.847656 285.1875 236.550781 285.1875 C 238.25 285.1875 239.644531 286.578125 239.644531 288.28125 L 239.644531 307.925781 C 239.644531 309.628906 238.25 311.019531 236.550781 311.019531 Z M 236.550781 311.019531 " fill-opacity="1" fill-rule="evenodd"/><path fill="#469aa4" d="M 190.757812 311.019531 C 188.902344 311.019531 187.664062 309.628906 187.664062 307.925781 L 187.664062 288.28125 C 187.664062 286.578125 189.058594 285.1875 190.757812 285.1875 C 192.460938 285.1875 193.851562 286.578125 193.851562 288.28125 L 193.851562 307.925781 C 193.851562 309.628906 192.460938 311.019531 190.757812 311.019531 Z M 190.757812 311.019531 " fill-opacity="1" fill-rule="evenodd"/><path fill="#469aa4" d="M 144.8125 311.019531 C 143.109375 311.019531 141.71875 309.628906 141.71875 307.925781 L 141.71875 288.28125 C 141.71875 286.578125 143.109375 285.1875 144.8125 285.1875 C 146.515625 285.1875 147.90625 286.578125 147.90625 288.28125 L 147.90625 307.925781 C 147.90625 309.628906 146.515625 311.019531 144.8125 311.019531 Z M 144.8125 311.019531 " fill-opacity="1" fill-rule="evenodd"/><path fill="#469aa4" d="M 98.867188 311.019531 C 97.164062 311.019531 95.773438 309.628906 95.773438 307.925781 L 95.773438 288.28125 C 95.773438 286.578125 97.164062 285.1875 98.867188 285.1875 C 100.570312 285.1875 101.960938 286.578125 101.960938 288.28125 L 101.960938 307.925781 C 101.960938 309.628906 100.570312 311.019531 98.867188 311.019531 Z M 98.867188 311.019531 " fill-opacity="1" fill-rule="evenodd"/><g clip-path="url(#5568a68932)"><path fill="#469aa4" d="M 310.496094 319.53125 C 308.792969 319.53125 307.402344 318.136719 307.402344 316.4375 L 307.402344 279.773438 C 307.402344 278.070312 308.792969 276.679688 310.496094 276.679688 C 312.195312 276.679688 313.589844 278.070312 313.589844 279.773438 L 313.589844 316.4375 C 313.589844 318.136719 312.195312 319.53125 310.496094 319.53125 Z M 310.496094 319.53125 " fill-opacity="1" fill-rule="evenodd"/></g><g clip-path="url(#12554f60ff)"><path fill="#469aa4" d="M 89.277344 61.648438 L 52.613281 61.648438 C 50.910156 61.648438 49.519531 60.253906 49.519531 58.554688 C 49.519531 56.851562 50.910156 55.460938 52.613281 55.460938 L 89.277344 55.460938 C 90.976562 55.460938 92.371094 56.851562 92.371094 58.554688 C 92.371094 60.253906 90.976562 61.648438 89.277344 61.648438 Z M 89.277344 61.648438 " fill-opacity="1" fill-rule="evenodd"/></g><path fill="#469aa4" d="M 103.816406 219.59375 C 103.355469 219.59375 102.734375 219.441406 102.269531 219.128906 C 100.878906 218.355469 100.414062 216.34375 101.1875 214.953125 L 142.027344 144.101562 C 142.957031 142.554688 144.8125 142.089844 146.359375 142.863281 C 147.753906 143.792969 148.371094 145.648438 147.441406 147.195312 L 106.601562 218.046875 C 105.984375 218.976562 104.902344 219.59375 103.816406 219.59375 Z M 170.027344 160.5 C 169.253906 160.5 168.636719 160.191406 168.019531 159.726562 L 151.773438 146.421875 C 150.382812 145.339844 150.226562 143.328125 151.308594 142.089844 C 152.394531 140.699219 154.402344 140.542969 155.640625 141.625 L 171.886719 155.085938 C 173.277344 156.167969 173.433594 158.023438 172.347656 159.417969 C 171.730469 160.035156 170.800781 160.5 170.027344 160.5 Z M 180.703125 160.5 C 179.929688 160.5 179 160.035156 178.382812 159.261719 C 177.300781 158.023438 177.453125 156.011719 178.691406 154.929688 L 204.371094 133.273438 C 205.609375 132.191406 207.621094 132.34375 208.703125 133.582031 C 209.785156 134.972656 209.632812 136.984375 208.238281 138.066406 L 182.714844 159.726562 C 182.09375 160.191406 181.476562 160.5 180.703125 160.5 Z M 231.132812 153.691406 C 230.359375 153.691406 229.585938 153.382812 228.96875 152.765625 L 214.425781 138.222656 C 213.191406 137.140625 213.191406 135.128906 214.425781 133.890625 C 215.664062 132.652344 217.675781 132.652344 218.757812 133.890625 L 233.300781 148.433594 C 234.539062 149.671875 234.539062 151.683594 233.300781 152.765625 C 232.835938 153.382812 231.90625 153.691406 231.132812 153.691406 Z M 231.132812 153.691406 " fill-opacity="1" fill-rule="evenodd"/><path fill="#469aa4" d="M 100.414062 232.742188 C 94.84375 232.742188 90.359375 228.101562 90.359375 222.535156 C 90.359375 216.964844 94.84375 212.476562 100.414062 212.476562 C 105.984375 212.476562 110.625 216.964844 110.625 222.535156 C 110.625 228.101562 105.984375 232.742188 100.414062 232.742188 Z M 100.414062 218.667969 C 98.25 218.667969 96.546875 220.367188 96.546875 222.535156 C 96.546875 224.699219 98.25 226.554688 100.414062 226.554688 C 102.582031 226.554688 104.4375 224.699219 104.4375 222.535156 C 104.4375 220.367188 102.582031 218.667969 100.414062 218.667969 Z M 100.414062 218.667969 " fill-opacity="1" fill-rule="evenodd"/><path fill="#469aa4" d="M 148.214844 149.671875 C 142.648438 149.671875 138.160156 145.03125 138.160156 139.460938 C 138.160156 133.890625 142.648438 129.40625 148.214844 129.40625 C 153.941406 129.40625 158.425781 133.890625 158.425781 139.460938 C 158.425781 145.03125 153.785156 149.671875 148.214844 149.671875 Z M 148.214844 135.59375 C 146.050781 135.59375 144.347656 137.292969 144.347656 139.460938 C 144.347656 141.625 146.050781 143.484375 148.214844 143.484375 C 150.382812 143.484375 152.238281 141.625 152.238281 139.460938 C 152.238281 137.292969 150.382812 135.59375 148.214844 135.59375 Z M 148.214844 135.59375 " fill-opacity="1" fill-rule="evenodd"/><path fill="#469aa4" d="M 175.441406 171.945312 C 169.875 171.945312 165.234375 167.460938 165.234375 161.890625 C 165.234375 156.324219 169.875 151.683594 175.441406 151.683594 C 181.011719 151.683594 185.5 156.324219 185.5 161.890625 C 185.5 167.460938 181.011719 171.945312 175.441406 171.945312 Z M 175.441406 157.871094 C 173.277344 157.871094 171.421875 159.726562 171.421875 161.890625 C 171.421875 164.058594 173.277344 165.757812 175.441406 165.757812 C 177.609375 165.757812 179.3125 164.058594 179.3125 161.890625 C 179.3125 159.726562 177.609375 157.871094 175.441406 157.871094 Z M 175.441406 157.871094 " fill-opacity="1" fill-rule="evenodd"/><path fill="#469aa4" d="M 211.644531 141.164062 C 206.074219 141.164062 201.585938 136.675781 201.585938 131.105469 C 201.585938 125.539062 206.074219 121.050781 211.644531 121.050781 C 217.210938 121.050781 221.699219 125.539062 221.699219 131.105469 C 221.699219 136.675781 217.210938 141.164062 211.644531 141.164062 Z M 211.644531 127.238281 C 209.476562 127.238281 207.773438 128.941406 207.773438 131.105469 C 207.773438 133.273438 209.476562 134.972656 211.644531 134.972656 C 213.808594 134.972656 215.511719 133.273438 215.511719 131.105469 C 215.511719 128.941406 213.808594 127.238281 211.644531 127.238281 Z M 211.644531 127.238281 " fill-opacity="1" fill-rule="evenodd"/><path fill="#469aa4" d="M 235.3125 166.53125 C 229.742188 166.53125 225.101562 161.890625 225.101562 156.324219 C 225.101562 150.753906 229.742188 146.265625 235.3125 146.265625 C 240.878906 146.265625 245.367188 150.753906 245.367188 156.324219 C 245.367188 161.890625 240.878906 166.53125 235.3125 166.53125 Z M 235.3125 152.457031 C 233.144531 152.457031 231.289062 154.15625 231.289062 156.324219 C 231.289062 158.488281 233.144531 160.34375 235.3125 160.34375 C 237.476562 160.34375 239.179688 158.488281 239.179688 156.324219 C 239.179688 154.15625 237.476562 152.457031 235.3125 152.457031 Z M 235.3125 152.457031 " fill-opacity="1" fill-rule="evenodd"/><path fill="#469aa4" d="M 186.425781 225.007812 C 185.34375 225.007812 184.261719 224.542969 183.640625 223.460938 C 182.867188 222.070312 183.332031 220.214844 184.878906 219.285156 L 202.824219 208.921875 C 204.21875 208.148438 206.074219 208.609375 207 210.15625 C 207.773438 211.550781 207.3125 213.40625 205.917969 214.335938 L 187.972656 224.699219 C 187.355469 225.007812 186.890625 225.007812 186.425781 225.007812 Z M 176.988281 222.378906 C 175.90625 222.378906 174.824219 221.761719 174.359375 220.675781 L 158.734375 190.976562 C 157.960938 189.429688 158.425781 187.570312 159.972656 186.796875 C 161.519531 186.023438 163.375 186.644531 164.148438 188.191406 L 179.773438 217.894531 C 180.546875 219.285156 179.929688 221.296875 178.539062 222.070312 C 178.074219 222.222656 177.453125 222.378906 176.988281 222.378906 Z M 275.53125 218.820312 C 274.605469 218.820312 273.832031 218.355469 273.210938 217.738281 C 271.976562 216.5 272.128906 214.488281 273.367188 213.40625 C 280.949219 206.601562 286.515625 201.339844 289.300781 198.554688 C 290.382812 197.316406 292.394531 197.164062 293.632812 198.402344 C 294.871094 199.636719 294.871094 201.496094 293.789062 202.730469 C 290.074219 206.601562 282.957031 213.097656 277.542969 218.046875 C 276.925781 218.511719 276.152344 218.820312 275.53125 218.820312 Z M 268.417969 216.65625 C 267.023438 216.65625 265.789062 215.726562 265.476562 214.335938 L 256.816406 182.3125 C 256.351562 180.609375 257.433594 178.910156 258.980469 178.445312 C 260.683594 178.136719 262.382812 179.0625 262.847656 180.765625 L 271.355469 212.789062 C 271.820312 214.335938 270.890625 216.035156 269.191406 216.5 C 268.882812 216.65625 268.726562 216.65625 268.417969 216.65625 Z M 139.242188 214.796875 C 138.625 214.796875 138.007812 214.644531 137.542969 214.335938 C 136.148438 213.40625 135.6875 211.394531 136.769531 210.003906 L 151.773438 187.417969 C 152.703125 186.023438 154.558594 185.714844 155.953125 186.644531 C 157.5 187.570312 157.808594 189.429688 156.878906 190.976562 L 141.875 213.40625 C 141.253906 214.335938 140.328125 214.796875 139.242188 214.796875 Z M 132.128906 214.488281 C 130.890625 214.488281 129.960938 213.871094 129.34375 212.789062 L 108.148438 173.03125 C 107.222656 171.636719 107.839844 169.78125 109.386719 168.851562 C 110.777344 168.078125 112.789062 168.699219 113.5625 170.246094 L 134.757812 209.847656 C 135.53125 211.394531 135.066406 213.25 133.519531 214.023438 C 133.054688 214.335938 132.589844 214.488281 132.128906 214.488281 Z M 209.476562 204.277344 C 207.929688 204.277344 206.539062 203.195312 206.382812 201.496094 L 202.359375 171.019531 C 202.050781 169.316406 203.289062 167.769531 204.992188 167.617188 C 205.609375 167.460938 206.226562 167.617188 206.691406 167.769531 C 206.847656 167.304688 207 166.6875 207.464844 166.222656 C 208.546875 164.984375 210.558594 164.832031 211.796875 165.914062 L 233.300781 184.324219 C 234.539062 185.5625 234.691406 187.417969 233.609375 188.808594 C 232.527344 190.046875 230.515625 190.203125 229.277344 189.117188 L 208.546875 171.328125 L 212.570312 200.722656 C 212.726562 202.421875 211.488281 203.96875 209.941406 204.277344 C 209.785156 204.277344 209.632812 204.277344 209.476562 204.277344 Z M 242.117188 190.046875 C 241.191406 190.046875 240.261719 189.738281 239.644531 188.964844 C 238.714844 187.570312 238.871094 185.5625 240.261719 184.476562 L 250.625 176.589844 C 251.863281 175.503906 253.875 175.816406 254.957031 177.050781 C 256.042969 178.445312 255.730469 180.457031 254.339844 181.382812 L 243.976562 189.429688 C 243.511719 189.890625 242.738281 190.046875 242.117188 190.046875 Z M 242.117188 190.046875 " fill-opacity="1" fill-rule="evenodd"/><path fill="#469aa4" d="M 107.683594 175.503906 C 102.117188 175.503906 97.476562 171.019531 97.476562 165.449219 C 97.476562 159.726562 102.117188 155.238281 107.683594 155.238281 C 113.253906 155.238281 117.742188 159.726562 117.742188 165.449219 C 117.742188 171.019531 113.253906 175.503906 107.683594 175.503906 Z M 107.683594 161.425781 C 105.519531 161.425781 103.664062 163.285156 103.664062 165.449219 C 103.664062 167.617188 105.519531 169.316406 107.683594 169.316406 C 109.851562 169.316406 111.554688 167.617188 111.554688 165.449219 C 111.554688 163.285156 109.851562 161.425781 107.683594 161.425781 Z M 107.683594 161.425781 " fill-opacity="1" fill-rule="evenodd"/><path fill="#469aa4" d="M 135.375 227.636719 C 129.808594 227.636719 125.320312 223.152344 125.320312 217.582031 C 125.320312 212.015625 129.808594 207.375 135.375 207.375 C 140.945312 207.375 145.433594 212.015625 145.433594 217.582031 C 145.433594 223.152344 140.945312 227.636719 135.375 227.636719 Z M 135.375 213.5625 C 133.210938 213.5625 131.507812 215.417969 131.507812 217.582031 C 131.507812 219.75 133.210938 221.449219 135.375 221.449219 C 137.542969 221.449219 139.242188 219.75 139.242188 217.582031 C 139.242188 215.417969 137.542969 213.5625 135.375 213.5625 Z M 135.375 213.5625 " fill-opacity="1" fill-rule="evenodd"/><path fill="#469aa4" d="M 158.117188 193.449219 C 152.546875 193.449219 148.0625 188.964844 148.0625 183.394531 C 148.0625 177.824219 152.546875 173.183594 158.117188 173.183594 C 163.6875 173.183594 168.328125 177.824219 168.328125 183.394531 C 168.328125 188.964844 163.6875 193.449219 158.117188 193.449219 Z M 158.117188 179.371094 C 155.953125 179.371094 154.25 181.230469 154.25 183.394531 C 154.25 185.5625 155.953125 187.261719 158.117188 187.261719 C 160.28125 187.261719 162.140625 185.5625 162.140625 183.394531 C 162.140625 181.230469 160.28125 179.371094 158.117188 179.371094 Z M 158.117188 179.371094 " fill-opacity="1" fill-rule="evenodd"/><path fill="#469aa4" d="M 180.238281 235.683594 C 174.667969 235.683594 170.183594 231.042969 170.183594 225.472656 C 170.183594 219.902344 174.667969 215.417969 180.238281 215.417969 C 185.808594 215.417969 190.449219 219.902344 190.449219 225.472656 C 190.449219 231.042969 185.808594 235.683594 180.238281 235.683594 Z M 180.238281 221.605469 C 178.074219 221.605469 176.371094 223.308594 176.371094 225.472656 C 176.371094 227.636719 178.074219 229.496094 180.238281 229.496094 C 182.40625 229.496094 184.261719 227.636719 184.261719 225.472656 C 184.261719 223.308594 182.40625 221.605469 180.238281 221.605469 Z M 180.238281 221.605469 " fill-opacity="1" fill-rule="evenodd"/><path fill="#469aa4" d="M 210.40625 218.203125 C 204.835938 218.203125 200.351562 213.714844 200.351562 208.148438 C 200.351562 202.578125 204.835938 197.9375 210.40625 197.9375 C 215.972656 197.9375 220.460938 202.578125 220.460938 208.148438 C 220.460938 213.714844 215.972656 218.203125 210.40625 218.203125 Z M 210.40625 204.125 C 208.238281 204.125 206.539062 205.980469 206.539062 208.148438 C 206.539062 210.3125 208.238281 212.015625 210.40625 212.015625 C 212.570312 212.015625 214.273438 210.3125 214.273438 208.148438 C 214.273438 205.980469 212.570312 204.125 210.40625 204.125 Z M 210.40625 204.125 " fill-opacity="1" fill-rule="evenodd"/><path fill="#469aa4" d="M 204.527344 173.804688 C 198.957031 173.804688 194.316406 169.164062 194.316406 163.59375 C 194.316406 158.023438 198.957031 153.539062 204.527344 153.539062 C 210.09375 153.539062 214.582031 158.023438 214.582031 163.59375 C 214.582031 169.164062 210.09375 173.804688 204.527344 173.804688 Z M 204.527344 159.726562 C 202.359375 159.726562 200.503906 161.425781 200.503906 163.59375 C 200.503906 165.757812 202.359375 167.617188 204.527344 167.617188 C 206.691406 167.617188 208.394531 165.757812 208.394531 163.59375 C 208.394531 161.425781 206.691406 159.726562 204.527344 159.726562 Z M 204.527344 159.726562 " fill-opacity="1" fill-rule="evenodd"/><path fill="#469aa4" d="M 236.550781 201.339844 C 230.980469 201.339844 226.492188 196.855469 226.492188 191.285156 C 226.492188 185.714844 230.980469 181.230469 236.550781 181.230469 C 242.117188 181.230469 246.757812 185.714844 246.757812 191.285156 C 246.757812 196.855469 242.117188 201.339844 236.550781 201.339844 Z M 236.550781 187.417969 C 234.382812 187.417969 232.683594 189.117188 232.683594 191.285156 C 232.683594 193.449219 234.382812 195.152344 236.550781 195.152344 C 238.714844 195.152344 240.570312 193.449219 240.570312 191.285156 C 240.570312 189.117188 238.714844 187.417969 236.550781 187.417969 Z M 236.550781 187.417969 " fill-opacity="1" fill-rule="evenodd"/><path fill="#469aa4" d="M 258.050781 184.789062 C 252.484375 184.789062 247.84375 180.300781 247.84375 174.730469 C 247.84375 169.164062 252.484375 164.675781 258.050781 164.675781 C 263.621094 164.675781 268.109375 169.164062 268.109375 174.730469 C 268.109375 180.300781 263.621094 184.789062 258.050781 184.789062 Z M 258.050781 170.863281 C 255.886719 170.863281 254.03125 172.566406 254.03125 174.730469 C 254.03125 176.898438 255.886719 178.597656 258.050781 178.597656 C 260.21875 178.597656 261.917969 176.898438 261.917969 174.730469 C 261.917969 172.566406 260.21875 170.863281 258.050781 170.863281 Z M 258.050781 170.863281 " fill-opacity="1" fill-rule="evenodd"/><path fill="#469aa4" d="M 270.273438 230.421875 C 264.703125 230.421875 260.0625 225.9375 260.0625 220.367188 C 260.0625 214.796875 264.703125 210.15625 270.273438 210.15625 C 275.84375 210.15625 280.328125 214.796875 280.328125 220.367188 C 280.328125 225.9375 275.84375 230.421875 270.273438 230.421875 Z M 270.273438 216.34375 C 268.109375 216.34375 266.25 218.203125 266.25 220.367188 C 266.25 222.535156 268.109375 224.234375 270.273438 224.234375 C 272.4375 224.234375 274.140625 222.535156 274.140625 220.367188 C 274.140625 218.203125 272.4375 216.34375 270.273438 216.34375 Z M 270.273438 216.34375 " fill-opacity="1" fill-rule="evenodd"/><path fill="#469aa4" d="M 296.417969 205.671875 C 290.847656 205.671875 286.207031 201.183594 286.207031 195.617188 C 286.207031 190.046875 290.847656 185.5625 296.417969 185.5625 C 301.988281 185.5625 306.472656 190.046875 306.472656 195.617188 C 306.472656 201.183594 301.988281 205.671875 296.417969 205.671875 Z M 296.417969 191.75 C 294.25 191.75 292.394531 193.449219 292.394531 195.617188 C 292.394531 197.78125 294.25 199.484375 296.417969 199.484375 C 298.582031 199.484375 300.285156 197.78125 300.285156 195.617188 C 300.285156 193.449219 298.582031 191.75 296.417969 191.75 Z M 296.417969 191.75 " fill-opacity="1" fill-rule="evenodd"/></svg>