<svg version="1.1" xmlns="http://www.w3.org/2000/svg" width="264" height="93">
<path d="M0 0 C0.33 13.86 0.66 27.72 1 42 C2.485 42.495 2.485 42.495 4 43 C4 43.99 4 44.98 4 46 C0.91772291 46.22655901 -2.1657016 46.42803465 -5.25 46.625 C-6.12269531 46.68945312 -6.99539062 46.75390625 -7.89453125 46.8203125 C-8.73886719 46.871875 -9.58320313 46.9234375 -10.453125 46.9765625 C-11.22817383 47.02893066 -12.00322266 47.08129883 -12.80175781 47.13525391 C-15.30741764 46.98108514 -16.79660918 46.14295741 -19 45 C-19.5775 45.28875 -20.155 45.5775 -20.75 45.875 C-24.21783357 47.60891679 -27.13863865 47.18387435 -31 47 C-31.99 46.67 -32.98 46.34 -34 46 C-34.99 46.33 -35.98 46.66 -37 47 C-43.13891343 47.55808304 -43.13891343 47.55808304 -46.17578125 45.58984375 C-48.92867664 41.68155757 -48.67402874 37.92568589 -48.75 33.25 C-48.77964844 32.36183594 -48.80929688 31.47367188 -48.83984375 30.55859375 C-48.91036918 28.37230551 -48.96314637 26.18707232 -49 24 C-50.65 24.33 -52.3 24.66 -54 25 C-54.66 23.68 -55.32 22.36 -56 21 C-58.17637566 21.8321184 -58.17637566 21.8321184 -60 24 C-60.52614217 27.23390636 -60.37422316 30.42186437 -60.25 33.6875 C-60.22292969 35.02651367 -60.22292969 35.02651367 -60.1953125 36.39257812 C-60.14817759 38.59613504 -60.08240657 40.79752601 -60 43 C-58.35 43.33 -56.7 43.66 -55 44 C-55 44.66 -55 45.32 -55 46 C-60.28 46 -65.56 46 -71 46 C-70.67 45.01 -70.34 44.02 -70 43 C-69.01 43 -68.02 43 -67 43 C-67.33 35.74 -67.66 28.48 -68 21 C-68.99 20.67 -69.98 20.34 -71 20 C-71 19.01 -71 18.02 -71 17 C-67.7 16.67 -64.4 16.34 -61 16 C-60.67 16.99 -60.34 17.98 -60 19 C-59.46375 18.505 -58.9275 18.01 -58.375 17.5 C-55.37505704 15.60529918 -53.48955396 15.69656053 -50 16 C-49.34 16.33 -48.68 16.66 -48 17 C-48 14.03 -48 11.06 -48 8 C-45.69 8 -43.38 8 -41 8 C-41 10.97 -41 13.94 -41 17 C-38.36 17 -35.72 17 -33 17 C-32.505 17.99 -32.505 17.99 -32 19 C-31.38125 18.505 -30.7625 18.01 -30.125 17.5 C-25.85940249 15.45251319 -21.63894662 14.89825018 -17 16 C-13.91792577 18.07070051 -12.27160173 19.6725023 -11.51318359 23.37939453 C-11.28337547 26.1997669 -11.20460253 28.9829822 -11.1875 31.8125 C-11.16236328 32.79154297 -11.13722656 33.77058594 -11.11132812 34.77929688 C-11.05261337 37.18660197 -11.0162202 39.59209562 -11 42 C-9.68 42 -8.36 42 -7 42 C-7 30.12 -7 18.24 -7 6 C-9.475 5.01 -9.475 5.01 -12 4 C-12 3.01 -12 2.02 -12 1 C-7.81823821 0.20347395 -4.34015506 0 0 0 Z M-27 20 C-27.04080783 21.99958364 -27.04254356 24.00045254 -27 26 C-28.65 26 -30.3 26 -32 26 C-33 21.125 -33 21.125 -33 20 C-35.64 20 -38.28 20 -41 20 C-41 26.93 -41 33.86 -41 41 C-38.525 41.99 -38.525 41.99 -36 43 C-35.87625 42.39671875 -35.7525 41.7934375 -35.625 41.171875 C-33.97475302 34.77716795 -33.97475302 34.77716795 -31.265625 32.6171875 C-29.20872186 31.60468092 -27.15566897 30.7788731 -25 30 C-23.66414356 29.42246808 -22.33058767 28.83956933 -21 28.25 C-20.01 27.8375 -19.02 27.425 -18 27 C-18.44703986 22.52116304 -18.44703986 22.52116304 -21 19 C-24.29009793 18.55239094 -24.29009793 18.55239094 -27 20 Z M-27 35 C-28.35618499 36.12534105 -28.35618499 36.12534105 -28.0625 39.0625 C-28.041875 40.031875 -28.02125 41.00125 -28 42 C-24.82219086 42.79445229 -22.74030219 43.27274291 -19.625 42.125 C-17.03490796 38.73795656 -17.68946465 35.11459336 -18 31 C-22.01389555 31 -23.79373524 32.69985354 -27 35 Z " fill="#80D7E4" transform="translate(259,34)"/>
<path d="M0 0 C0.33 0.99 0.66 1.98 1 3 C1.47953125 2.50886719 1.9590625 2.01773438 2.453125 1.51171875 C6.17856129 -0.69954482 9.50602447 -0.32474299 13.75 -0.1875 C14.54277344 -0.17396484 15.33554688 -0.16042969 16.15234375 -0.14648438 C18.10185564 -0.11125223 20.05101626 -0.05744821 22 0 C22.495 0.99 22.495 0.99 23 2 C23.99 1.34 24.98 0.68 26 0 C31.29977145 -0.42740092 34.74748241 -0.52351458 39 3 C40.8125 5.6875 40.8125 5.6875 42 8 C42.7425 7.05125 43.485 6.1025 44.25 5.125 C46.81975131 1.84142889 49.19271589 0.25647926 53.3671875 -0.3359375 C59.09465733 -0.42515043 62.56447399 -0.00279176 67 4 C70.90451609 9.44577244 70.77348192 14.51134613 70 21 C68.77517049 24.76009488 66.80912222 27.26227092 63.875 29.9375 C59.54676122 31.53706651 55.5547798 31.65588829 51 31 C47.19365844 29.16479961 45.5131526 28.02630521 43.625 24.25 C43.41875 23.5075 43.2125 22.765 43 22 C42.34 22 41.68 22 41 22 C40.79375 22.7425 40.5875 23.485 40.375 24.25 C38.5026965 27.994607 36.75319208 29.15752389 33 31 C29.20122657 31.45968351 25.47446393 31.73723196 22 30 C22.495 34.455 22.495 34.455 23 39 C24.65 39.66 26.3 40.32 28 41 C28 41.66 28 42.32 28 43 C22.39 43 16.78 43 11 43 C11 42.01 11 41.02 11 40 C12.98 39.505 12.98 39.505 15 39 C15.07405887 34.33694962 15.12855763 29.67424016 15.16479492 25.01074219 C15.17989814 23.42376749 15.20038223 21.83683463 15.22631836 20.25 C15.26263595 17.97124927 15.27971023 15.69304942 15.29296875 13.4140625 C15.30845261 12.70255035 15.32393646 11.99103821 15.33988953 11.25796509 C15.37546508 9.04245596 15.37546508 9.04245596 15 6 C14.01 5.34 13.02 4.68 12 4 C11.67 5.65 11.34 7.3 11 9 C8.625 8.6875 8.625 8.6875 6 8 C5.34 7.01 4.68 6.02 4 5 C3.01 5.33 2.02 5.66 1 6 C1 12.6 1 19.2 1 26 C3.475 26.99 3.475 26.99 6 28 C6 28.66 6 29.32 6 30 C0.39 30 -5.22 30 -11 30 C-10.505 28.515 -10.505 28.515 -10 27 C-9.01 26.67 -8.02 26.34 -7 26 C-7 19.4 -7 12.8 -7 6 C-8.32 5.34 -9.64 4.68 -11 4 C-11 3.01 -11 2.02 -11 1 C-7.26513121 0.4254048 -3.78706732 0 0 0 Z M50.6875 5.25 C47.84806494 9.8772275 47.63139262 13.56304116 48 19 C49.08507322 22.49478128 50.37865612 25.37865612 53 28 C56.49721894 28.07216639 56.49721894 28.07216639 60 27 C62.97959544 23.22584578 63.40821038 20.23801372 63.375 15.5 C63.38273437 14.3965625 63.39046875 13.293125 63.3984375 12.15625 C62.92444697 8.40150151 61.69800543 5.69800543 59 3 C55.04415236 2.47255365 53.61041529 2.40608242 50.6875 5.25 Z M22 6 C21.34820302 9.10302623 21.53689545 12.27417479 21.5625 15.4375 C21.54251953 16.30955078 21.52253906 17.18160156 21.50195312 18.08007812 C21.37722491 23.03031895 21.37722491 23.03031895 23.87109375 27.06640625 C26.58346249 28.25586704 28.07389057 28.58522189 31 28 C35.21764599 23.66519718 36.29311092 20.08903848 36.2265625 14.06640625 C35.77303972 9.92996572 33.88768006 6.88768006 31 4 C26.94738713 3.65509678 25.45245824 3.69836118 22 6 Z " fill="#7FD7E4" transform="translate(119,50)"/>
<path d="M0 0 C1.97829072 1.97829072 1.25503932 5.82327027 1.31640625 8.53515625 C1.33718735 9.28840683 1.35796844 10.04165741 1.37937927 10.81773376 C1.44495425 13.2325599 1.50379621 15.64749798 1.5625 18.0625 C1.6056777 19.69597529 1.64929173 21.3294391 1.69335938 22.96289062 C1.80064362 26.97514464 1.90188821 30.98751164 2 35 C3.65 35.33 5.3 35.66 7 36 C6.67 30.06 6.34 24.12 6 18 C5.01 17.67 4.02 17.34 3 17 C3 16.01 3 15.02 3 14 C5.97 14 8.94 14 12 14 C12.495 24.395 12.495 24.395 13 35 C13.66 35 14.32 35 15 35 C15.103125 34.071875 15.20625 33.14375 15.3125 32.1875 C16.04687346 28.78267761 16.36551497 28.0798566 19 26 C21.48046875 25.05078125 21.48046875 25.05078125 24.1875 24.3125 C25.08855469 24.06113281 25.98960938 23.80976563 26.91796875 23.55078125 C27.94857422 23.27814453 27.94857422 23.27814453 29 23 C28.34 21.02 27.68 19.04 27 17 C25.68 17 24.36 17 23 17 C22.505 19.475 22.505 19.475 22 22 C20.125 22.625 20.125 22.625 18 23 C17.34 22.34 16.68 21.68 16 21 C16.3201924 17.69134515 17.47954738 16.08608891 20 14 C24.25092261 12.74223638 27.89970109 12.54154212 32 14.25 C34 16 34 16 35 19 C35.07973476 20.33525717 35.10771338 21.67412083 35.09765625 23.01171875 C35.09443359 23.76904297 35.09121094 24.52636719 35.08789062 25.30664062 C35.07532227 26.48516602 35.07532227 26.48516602 35.0625 27.6875 C35.05798828 28.48478516 35.05347656 29.28207031 35.04882812 30.10351562 C35.0370585 32.06904257 35.01912348 34.03453085 35 36 C36.32 36 37.64 36 39 36 C38.67 36.99 38.34 37.98 38 39 C34.625 39.125 34.625 39.125 31 39 C30.34 38.34 29.68 37.68 29 37 C28.34 37.66 27.68 38.32 27 39 C22.70333228 40.12086984 20.84569312 39.98487387 17 38 C14.31006947 38.30378052 14.31006947 38.30378052 12 39 C12 41.64 12 44.28 12 47 C14.64 47 17.28 47 20 47 C20 47.99 20 48.98 20 50 C17.36 50 14.72 50 12 50 C12.33 57.26 12.66 64.52 13 72 C15.64 72 18.28 72 21 72 C20.6875 73.9375 20.6875 73.9375 20 76 C16.43528609 77.18823797 13.7441664 77.26274852 10 77 C7.80175781 75.83081055 7.80175781 75.83081055 6 74 C5.54589844 71.45629883 5.54589844 71.45629883 5.609375 68.45703125 C5.62871094 66.84731445 5.62871094 66.84731445 5.6484375 65.20507812 C5.68195313 64.08552734 5.71546875 62.96597656 5.75 61.8125 C5.76804687 60.68134766 5.78609375 59.55019531 5.8046875 58.38476562 C5.85187348 55.58899624 5.91769405 52.79492028 6 50 C4.35 50 2.7 50 1 50 C1 49.01 1 48.02 1 47 C2.65 47 4.3 47 6 47 C6 44.36 6 41.72 6 39 C3.95840905 38.9727384 1.91671037 38.95348655 -0.125 38.9375 C-1.26195313 38.92589844 -2.39890625 38.91429687 -3.5703125 38.90234375 C-6.98360843 38.91548713 -6.98360843 38.91548713 -10.23046875 39.57421875 C-14.06864118 40.16429039 -15.81082104 39.12611931 -19 37 C-22.46302612 33.19067127 -22.44673501 29.29893634 -22.29296875 24.37109375 C-21.91107951 21.28033681 -20.96552439 19.40230758 -19 17 C-18.608125 16.4225 -18.21625 15.845 -17.8125 15.25 C-14.88217203 13.22908416 -11.51194575 13.02832214 -8 13 C-7.01 13.33 -6.02 13.66 -5 14 C-5.06006078 12.54052295 -5.1488689 11.08220728 -5.25 9.625 C-5.29640625 8.81289062 -5.3428125 8.00078125 -5.390625 7.1640625 C-5.7922092 4.81161073 -5.7922092 4.81161073 -8.046875 3.7109375 C-8.69140625 3.47632813 -9.3359375 3.24171875 -10 3 C-10 2.34 -10 1.68 -10 1 C-6.60169639 0.22324489 -3.48880949 -0.19382275 0 0 Z M-14.25 17.875 C-16.67546521 22.20618787 -16.68125249 26.12825254 -16 31 C-15.30204911 33.25690679 -15.30204911 33.25690679 -14 35 C-10.53462587 35.99510849 -10.53462587 35.99510849 -7 36 C-4.4488966 33.4488966 -4.71272415 31.72062918 -4.67773438 28.234375 C-4.68095703 27.49703125 -4.68417969 26.7596875 -4.6875 26 C-4.67138672 25.26265625 -4.65527344 24.5253125 -4.63867188 23.765625 C-4.60058895 21.37280011 -4.60058895 21.37280011 -5 18 C-8.7029419 15.53137207 -10.69519662 14.91266385 -14.25 17.875 Z M21 30 C21.33 31.65 21.66 33.3 22 35 C23.84725052 35.69159401 23.84725052 35.69159401 26 36 C26.99 35.34 27.98 34.68 29 34 C29.36297936 32.02252878 29.36297936 32.02252878 29.1875 29.875 C29.125625 28.59625 29.06375 27.3175 29 26 C25.71841516 26 23.62118892 28.17656423 21 30 Z " fill="#80D7E4" transform="translate(66,4)"/>
<path d="M0 0 C0.85207031 -0.03738281 1.70414063 -0.07476562 2.58203125 -0.11328125 C6.38876688 0.50880898 7.7136738 1.29616806 10.1875 4.3125 C10.95235206 8.22281095 10.97831557 12.08702063 11 16.0625 C11.02513672 17.14144531 11.05027344 18.22039062 11.07617188 19.33203125 C11.13503299 21.99255377 11.1713204 24.65143151 11.1875 27.3125 C12.5075 27.3125 13.8275 27.3125 15.1875 27.3125 C15.1875 28.3025 15.1875 29.2925 15.1875 30.3125 C12.4076184 31.7024408 10.2688674 31.49738204 7.1875 31.3125 C6.48625 30.94125 5.785 30.57 5.0625 30.1875 C4.134375 29.754375 4.134375 29.754375 3.1875 29.3125 C1.84503688 29.96058564 0.51317199 30.63072584 -0.8125 31.3125 C-5.21891997 31.87331709 -7.11442265 31.79242818 -10.8125 29.25 C-12.8125 26.3125 -12.8125 26.3125 -12.875 22.75 C-11.70626291 18.96879176 -10.79345234 17.8160937 -7.8125 15.3125 C-5.015625 14.046875 -5.015625 14.046875 -2.0625 13.0625 C-0.58523437 12.55976562 -0.58523437 12.55976562 0.921875 12.046875 C1.66953125 11.80453125 2.4171875 11.5621875 3.1875 11.3125 C2.6925 7.8475 2.6925 7.8475 2.1875 4.3125 C0.2075 4.3125 -1.7725 4.3125 -3.8125 4.3125 C-3.77125 5.09625 -3.73 5.88 -3.6875 6.6875 C-3.8125 9.3125 -3.8125 9.3125 -5.8125 11.3125 C-8.4375 10.9375 -8.4375 10.9375 -10.8125 10.3125 C-10.8125 8.6625 -10.8125 7.0125 -10.8125 5.3125 C-11.4725 5.3125 -12.1325 5.3125 -12.8125 5.3125 C-12.94978516 6.47652344 -12.94978516 6.47652344 -13.08984375 7.6640625 C-14.05194752 12.5213864 -15.69949723 17.03590618 -17.375 21.6875 C-17.70435547 22.61433594 -18.03371094 23.54117188 -18.37304688 24.49609375 C-19.1817563 26.76985647 -19.99501358 29.0418813 -20.8125 31.3125 C-22.69238281 31.06469727 -22.69238281 31.06469727 -24.8125 30.3125 C-25.90917969 28.54663086 -25.90917969 28.54663086 -26.734375 26.27734375 C-27.00862305 25.54894287 -27.28287109 24.82054199 -27.56542969 24.07006836 C-27.89446289 23.1394458 -28.22349609 22.20882324 -28.5625 21.25 C-29.635 18.300625 -30.7075 15.35125 -31.8125 12.3125 C-34.1225 18.5825 -36.4325 24.8525 -38.8125 31.3125 C-40.1325 30.9825 -41.4525 30.6525 -42.8125 30.3125 C-43.9375 28.04345703 -43.9375 28.04345703 -44.8125 25.0703125 C-45.1425 24.00425781 -45.4725 22.93820313 -45.8125 21.83984375 C-46.3075 20.15568359 -46.3075 20.15568359 -46.8125 18.4375 C-47.46642198 16.22795895 -48.13260602 14.02200044 -48.8125 11.8203125 C-49.10125 10.83691895 -49.39 9.85352539 -49.6875 8.84033203 C-50.96330798 5.97364023 -52.26786576 5.05067073 -54.8125 3.3125 C-54.8125 2.6525 -54.8125 1.9925 -54.8125 1.3125 C-50.1925 1.3125 -45.5725 1.3125 -40.8125 1.3125 C-40.8125 2.3025 -40.8125 3.2925 -40.8125 4.3125 C-41.8025 4.3125 -42.7925 4.3125 -43.8125 4.3125 C-43.52375 5.14394531 -43.235 5.97539063 -42.9375 6.83203125 C-42.56625 7.91871094 -42.195 9.00539063 -41.8125 10.125 C-41.255625 11.74341797 -41.255625 11.74341797 -40.6875 13.39453125 C-39.8125 16.3125 -39.8125 16.3125 -39.8125 19.3125 C-39.1525 19.3125 -38.4925 19.3125 -37.8125 19.3125 C-37.63074219 18.59964844 -37.44898437 17.88679688 -37.26171875 17.15234375 C-35.81467222 11.63872542 -34.22358634 6.47911358 -31.8125 1.3125 C-30.4925 1.3125 -29.1725 1.3125 -27.8125 1.3125 C-27.18021484 3.02759766 -27.18021484 3.02759766 -26.53515625 4.77734375 C-25.98191479 6.26828259 -25.42852153 7.75916511 -24.875 9.25 C-24.45831055 10.38211914 -24.45831055 10.38211914 -24.03320312 11.53710938 C-22.89496549 15.20029139 -22.89496549 15.20029139 -20.8125 18.3125 C-19.4925 13.6925 -18.1725 9.0725 -16.8125 4.3125 C-17.8025 3.9825 -18.7925 3.6525 -19.8125 3.3125 C-19.8125 2.6525 -19.8125 1.9925 -19.8125 1.3125 C-18.89726563 1.32410156 -17.98203125 1.33570313 -17.0390625 1.34765625 C-15.85054687 1.35667969 -14.66203125 1.36570313 -13.4375 1.375 C-12.25414062 1.38660156 -11.07078125 1.39820313 -9.8515625 1.41015625 C-6.36129027 1.29800097 -3.57817303 0.10192697 0 0 Z M-4.8125 19.3125 C-6.08253323 20.36560277 -6.08253323 20.36560277 -6 22.75 C-6.08089983 25.47984675 -6.08089983 25.47984675 -3.8125 27.3125 C0.69067123 26.95986215 0.69067123 26.95986215 4.1875 24.3125 C4.43003813 22.10177023 4.43003813 22.10177023 4.3125 19.6875 C4.29445313 18.87023437 4.27640625 18.05296875 4.2578125 17.2109375 C4.23460937 16.58445312 4.21140625 15.95796875 4.1875 15.3125 C0.17360445 15.3125 -1.60623524 17.01235354 -4.8125 19.3125 Z " fill="#1499B1" transform="translate(55.8125,49.6875)"/>
<path d="M0 0 C5.28 0 10.56 0 16 0 C16 0.99 16 1.98 16 3 C14.35 3.33 12.7 3.66 11 4 C11.33 13.24 11.66 22.48 12 32 C14.31 32 16.62 32 19 32 C19 26.06 19 20.12 19 14 C18.01 14 17.02 14 16 14 C16 13.01 16 12.02 16 11 C18.97 11 21.94 11 25 11 C25 11.66 25 12.32 25 13 C25.86625 12.484375 26.7325 11.96875 27.625 11.4375 C31.45079771 9.80799357 33.07506853 9.77891021 37 11 C39.00222988 12.57068418 39.88975142 13.43805401 40.38476562 15.96118164 C40.39185547 16.68684326 40.39894531 17.41250488 40.40625 18.16015625 C40.42816406 18.95357422 40.45007812 19.74699219 40.47265625 20.56445312 C40.49092817 22.23372349 40.50915714 23.90299433 40.52734375 25.57226562 C40.54925781 26.36439453 40.57117187 27.15652344 40.59375 27.97265625 C40.60083984 28.69718994 40.60792969 29.42172363 40.61523438 30.16821289 C40.86396174 32.41504738 40.86396174 32.41504738 44 34 C44 34.66 44 35.32 44 36 C39.71 36 35.42 36 31 36 C31 35.01 31 34.02 31 33 C32.485 32.505 32.485 32.505 34 32 C34 26.39 34 20.78 34 15 C27.6 15.2 27.6 15.2 26 17 C25.92686433 19.53049402 25.90752473 22.03304837 25.9375 24.5625 C25.94201172 25.27341797 25.94652344 25.98433594 25.95117188 26.71679688 C25.96299136 28.47790013 25.98092737 30.23896036 26 32 C27.485 32.495 27.485 32.495 29 33 C29 33.99 29 34.98 29 36 C19.43 36 9.86 36 0 36 C0 35.01 0 34.02 0 33 C1.98 32.505 1.98 32.505 4 32 C4.33 22.76 4.66 13.52 5 4 C3.35 3.67 1.7 3.34 0 3 C0 2.01 0 1.02 0 0 Z " fill="#80D7E4" transform="translate(1,7)"/>
<path d="M0 0 C1.80827424 0.89252908 3.60932767 1.79985765 5.40234375 2.72265625 C11.28701193 5.43387044 16.81996951 5.53158911 22.92578125 3.5390625 C24.28532481 3.01103651 25.64028362 2.47090406 26.98828125 1.9140625 C27.97828125 1.5840625 28.96828125 1.2540625 29.98828125 0.9140625 C28.71313423 6.39719469 26.58833101 8.72941267 21.98828125 11.9140625 C16.33732328 14.43895861 10.89390332 14.80070981 5.078125 12.6015625 C3.69242819 12.04297161 2.3083611 11.48032426 0.92578125 10.9140625 C-8.92186338 7.15846762 -17.88287507 6.14801567 -28.01171875 9.9140625 C-26.44321993 4.78079362 -23.72855696 2.59620286 -19.2578125 -0.171875 C-13.44464786 -2.53758026 -5.81644736 -2.09724042 0 0 Z " fill="#79D4E1" transform="translate(97.01171875,1.0859375)"/>
<path d="M0 0 C3.614243 1.91256722 5.68532443 4.05597329 7 8 C7 10.31 7 12.62 7 15 C0.73 15 -5.54 15 -12 15 C-10.12555779 23.69302969 -10.12555779 23.69302969 -6 26 C-2.94685941 26.47493298 -0.92226759 26.60020589 1.72265625 24.87890625 C3.20042231 23.64568776 4.60622346 22.32740623 6 21 C6.66 21.99 7.32 22.98 8 24 C5.57879511 27.28592092 3.80484577 29.47667053 0 31 C-4.2009067 31.57865799 -7.8933531 31.46725091 -11.8125 29.8125 C-16.04140912 26.30854673 -18.15371202 23.68244371 -18.9375 18.1875 C-19.33828912 11.45424272 -17.79699252 7.10379613 -13.4375 2 C-8.85072176 -0.66867098 -5.18931342 -1.06814069 0 0 Z M-9.75 4.125 C-11.43985241 6.65977861 -11.66730609 9.00575483 -12 12 C-8.04 12 -4.08 12 0 12 C0.53505208 6.47491739 0.53505208 6.47491739 -1.1875 4.125 C-4.19911686 2.25572057 -6.75332611 2.19856679 -9.75 4.125 Z " fill="#1499B1" transform="translate(103,50)"/>
<path d="M0 0 C1.98 0 3.96 0 6 0 C6 2.97 6 5.94 6 9 C8.64 9 11.28 9 14 9 C14 9.99 14 10.98 14 12 C11.36 12 8.72 12 6 12 C6.33 19.26 6.66 26.52 7 34 C9.64 34 12.28 34 15 34 C14.6875 35.9375 14.6875 35.9375 14 38 C10.43528609 39.18823797 7.7441664 39.26274852 4 39 C1.80175781 37.83081055 1.80175781 37.83081055 0 36 C-0.45410156 33.45629883 -0.45410156 33.45629883 -0.390625 30.45703125 C-0.37773438 29.38388672 -0.36484375 28.31074219 -0.3515625 27.20507812 C-0.31804687 26.08552734 -0.28453125 24.96597656 -0.25 23.8125 C-0.23195313 22.68134766 -0.21390625 21.55019531 -0.1953125 20.38476562 C-0.14812652 17.58899624 -0.08230595 14.79492028 0 12 C-1.65 12 -3.3 12 -5 12 C-5 11.01 -5 10.02 -5 9 C-3.35 9 -1.7 9 0 9 C0 6.03 0 3.06 0 0 Z " fill="#159AB2" transform="translate(72,42)"/>
<path d="M0 0 C0.33 0.99 0.66 1.98 1 3 C1.556875 2.505 2.11375 2.01 2.6875 1.5 C5.4213623 -0.27331609 6.80165127 -0.50500243 10 0 C12.1519437 3.22791555 12.20086443 4.28400809 12 8 C10.35 8.33 8.7 8.66 7 9 C6.01 7.68 5.02 6.36 4 5 C3.01 5.33 2.02 5.66 1 6 C1 12.6 1 19.2 1 26 C3.475 26.99 3.475 26.99 6 28 C6 28.66 6 29.32 6 30 C0.39 30 -5.22 30 -11 30 C-10.505 28.515 -10.505 28.515 -10 27 C-9.01 26.67 -8.02 26.34 -7 26 C-7 19.4 -7 12.8 -7 6 C-8.32 5.34 -9.64 4.68 -11 4 C-11 3.01 -11 2.02 -11 1 C-7.26513121 0.4254048 -3.78706732 0 0 0 Z " fill="#1499B1" transform="translate(119,50)"/>
<path d="M0 0 C0.8765625 0.45503906 1.753125 0.91007813 2.65625 1.37890625 C8.93460496 4.24387847 15.61937834 3.85979554 22.25 2.5625 C17.7130909 6.16073825 14.02869414 7.0044344 8.33203125 6.99609375 C4.50221932 6.45729892 1.20609151 5.09016503 -2.3125 3.5625 C-8.83001509 0.76070647 -14.14339348 -1.23695567 -21 1.44140625 C-22.98066503 2.39990665 -24.86187881 3.43506073 -26.75 4.5625 C-27.74 5.0575 -27.74 5.0575 -28.75 5.5625 C-27.59572002 1.97140673 -25.43829468 0.06460826 -22.125 -1.66796875 C-14.71911569 -4.06757271 -6.92476577 -3.38369236 0 0 Z " fill="#189BB3" transform="translate(99.75,2.4375)"/>
</svg>
